<svg width="20" height="20" viewBox="0 0 20 20" fill="none" xmlns="http://www.w3.org/2000/svg">
<path d="M15.8916 15.8927C19.1499 12.6344 19.1499 7.35938 15.8916 4.10938" stroke="#00B2A9" stroke-width="1.25" stroke-linecap="round" stroke-linejoin="round"/>
<path d="M4.10781 4.10938C0.849479 7.36771 0.849479 12.6427 4.10781 15.8927" stroke="#00B2A9" stroke-width="1.25" stroke-linecap="round" stroke-linejoin="round"/>
<path d="M7.25 17.8438C8.14167 18.1521 9.06666 18.3021 9.99999 18.3021C10.9333 18.2938 11.8583 18.1521 12.75 17.8438" stroke="#00B2A9" stroke-width="1.25" stroke-linecap="round" stroke-linejoin="round"/>
<path d="M7.25 2.15759C8.14167 1.84926 9.06666 1.69922 9.99999 1.69922C10.9333 1.69922 11.8583 1.84926 12.75 2.15759" stroke="#00B2A9" stroke-width="1.25" stroke-linecap="round" stroke-linejoin="round"/>
<path d="M7.2832 10.0008V8.60911C7.2832 6.87578 8.50822 6.16743 10.0082 7.0341L11.2165 7.73412L12.4249 8.4341C13.9249 9.30076 13.9249 10.7175 12.4249 11.5841L11.2165 12.2841L10.0082 12.9841C8.50822 13.8508 7.2832 13.1424 7.2832 11.4091V10.0008Z" stroke="#00B2A9" stroke-width="1.25" stroke-miterlimit="10" stroke-linecap="round" stroke-linejoin="round"/>
</svg>
