<svg width="78" height="16" viewBox="0 0 78 16" fill="none" xmlns="http://www.w3.org/2000/svg">
<path d="M22.079 10.988H24.664V12H20.825V4.355H22.079V10.988ZM28.3417 12.099C27.7697 12.099 27.2527 11.9707 26.7907 11.714C26.3287 11.45 25.9657 11.0833 25.7017 10.614C25.4377 10.1373 25.3057 9.58733 25.3057 8.964C25.3057 8.348 25.4414 7.80167 25.7127 7.325C25.984 6.84833 26.3544 6.48167 26.8237 6.225C27.293 5.96833 27.8174 5.84 28.3967 5.84C28.976 5.84 29.5004 5.96833 29.9697 6.225C30.439 6.48167 30.8094 6.84833 31.0807 7.325C31.352 7.80167 31.4877 8.348 31.4877 8.964C31.4877 9.58 31.3484 10.1263 31.0697 10.603C30.791 11.0797 30.4097 11.45 29.9257 11.714C29.449 11.9707 28.921 12.099 28.3417 12.099ZM28.3417 11.01C28.6644 11.01 28.965 10.933 29.2437 10.779C29.5297 10.625 29.7607 10.394 29.9367 10.086C30.1127 9.778 30.2007 9.404 30.2007 8.964C30.2007 8.524 30.1164 8.15367 29.9477 7.853C29.779 7.545 29.5554 7.314 29.2767 7.16C28.998 7.006 28.6974 6.929 28.3747 6.929C28.052 6.929 27.7514 7.006 27.4727 7.16C27.2014 7.314 26.985 7.545 26.8237 7.853C26.6624 8.15367 26.5817 8.524 26.5817 8.964C26.5817 9.61667 26.7467 10.1227 27.0767 10.482C27.414 10.834 27.8357 11.01 28.3417 11.01ZM32.3093 8.942C32.3093 8.33333 32.434 7.79433 32.6833 7.325C32.94 6.85567 33.2847 6.49267 33.7173 6.236C34.1573 5.972 34.6413 5.84 35.1693 5.84C35.646 5.84 36.0603 5.93533 36.4123 6.126C36.7717 6.30933 37.0577 6.54033 37.2703 6.819V5.939H38.5353V12H37.2703V11.098C37.0577 11.384 36.768 11.6223 36.4013 11.813C36.0347 12.0037 35.6167 12.099 35.1473 12.099C34.6267 12.099 34.15 11.967 33.7173 11.703C33.2847 11.4317 32.94 11.0577 32.6833 10.581C32.434 10.097 32.3093 9.55067 32.3093 8.942ZM37.2703 8.964C37.2703 8.546 37.1823 8.183 37.0063 7.875C36.8377 7.567 36.614 7.33233 36.3353 7.171C36.0567 7.00967 35.756 6.929 35.4333 6.929C35.1107 6.929 34.81 7.00967 34.5313 7.171C34.2527 7.325 34.0253 7.556 33.8493 7.864C33.6807 8.16467 33.5963 8.524 33.5963 8.942C33.5963 9.36 33.6807 9.72667 33.8493 10.042C34.0253 10.3573 34.2527 10.5993 34.5313 10.768C34.8173 10.9293 35.118 11.01 35.4333 11.01C35.756 11.01 36.0567 10.9293 36.3353 10.768C36.614 10.6067 36.8377 10.372 37.0063 10.064C37.1823 9.74867 37.2703 9.382 37.2703 8.964ZM39.7644 8.942C39.7644 8.33333 39.8891 7.79433 40.1384 7.325C40.3951 6.85567 40.7398 6.49267 41.1724 6.236C41.6124 5.972 42.1001 5.84 42.6354 5.84C43.0314 5.84 43.4201 5.928 43.8014 6.104C44.1901 6.27267 44.4981 6.5 44.7254 6.786V3.86H45.9904V12H44.7254V11.087C44.5201 11.3803 44.2341 11.6223 43.8674 11.813C43.5081 12.0037 43.0938 12.099 42.6244 12.099C42.0964 12.099 41.6124 11.967 41.1724 11.703C40.7398 11.4317 40.3951 11.0577 40.1384 10.581C39.8891 10.097 39.7644 9.55067 39.7644 8.942ZM44.7254 8.964C44.7254 8.546 44.6374 8.183 44.4614 7.875C44.2928 7.567 44.0691 7.33233 43.7904 7.171C43.5118 7.00967 43.2111 6.929 42.8884 6.929C42.5658 6.929 42.2651 7.00967 41.9864 7.171C41.7078 7.325 41.4804 7.556 41.3044 7.864C41.1358 8.16467 41.0514 8.524 41.0514 8.942C41.0514 9.36 41.1358 9.72667 41.3044 10.042C41.4804 10.3573 41.7078 10.5993 41.9864 10.768C42.2724 10.9293 42.5731 11.01 42.8884 11.01C43.2111 11.01 43.5118 10.9293 43.7904 10.768C44.0691 10.6067 44.2928 10.372 44.4614 10.064C44.6374 9.74867 44.7254 9.382 44.7254 8.964ZM58.5469 4.355V12H57.2929V6.764L54.9609 12H54.0919L51.7489 6.764V12H50.4949V4.355H51.8479L54.5319 10.35L57.2049 4.355H58.5469ZM62.8241 12.099C62.2521 12.099 61.7351 11.9707 61.2731 11.714C60.8111 11.45 60.4481 11.0833 60.1841 10.614C59.9201 10.1373 59.7881 9.58733 59.7881 8.964C59.7881 8.348 59.9238 7.80167 60.1951 7.325C60.4665 6.84833 60.8368 6.48167 61.3061 6.225C61.7755 5.96833 62.2998 5.84 62.8791 5.84C63.4585 5.84 63.9828 5.96833 64.4521 6.225C64.9215 6.48167 65.2918 6.84833 65.5631 7.325C65.8345 7.80167 65.9701 8.348 65.9701 8.964C65.9701 9.58 65.8308 10.1263 65.5521 10.603C65.2735 11.0797 64.8921 11.45 64.4081 11.714C63.9315 11.9707 63.4035 12.099 62.8241 12.099ZM62.8241 11.01C63.1468 11.01 63.4475 10.933 63.7261 10.779C64.0121 10.625 64.2431 10.394 64.4191 10.086C64.5951 9.778 64.6831 9.404 64.6831 8.964C64.6831 8.524 64.5988 8.15367 64.4301 7.853C64.2615 7.545 64.0378 7.314 63.7591 7.16C63.4805 7.006 63.1798 6.929 62.8571 6.929C62.5345 6.929 62.2338 7.006 61.9551 7.16C61.6838 7.314 61.4675 7.545 61.3061 7.853C61.1448 8.15367 61.0641 8.524 61.0641 8.964C61.0641 9.61667 61.2291 10.1227 61.5591 10.482C61.8965 10.834 62.3181 11.01 62.8241 11.01ZM68.4638 6.819C68.6471 6.511 68.8891 6.27267 69.1898 6.104C69.4978 5.928 69.8608 5.84 70.2788 5.84V7.138H69.9598C69.4684 7.138 69.0944 7.26267 68.8378 7.512C68.5884 7.76133 68.4638 8.194 68.4638 8.81V12H67.2098V5.939H68.4638V6.819ZM76.9864 8.821C76.9864 9.04833 76.9718 9.25367 76.9424 9.437H72.3114C72.3481 9.921 72.5278 10.3097 72.8504 10.603C73.1731 10.8963 73.5691 11.043 74.0384 11.043C74.7131 11.043 75.1898 10.7607 75.4684 10.196H76.8214C76.6381 10.7533 76.3044 11.2117 75.8204 11.571C75.3438 11.923 74.7498 12.099 74.0384 12.099C73.4591 12.099 72.9384 11.9707 72.4764 11.714C72.0218 11.45 71.6624 11.0833 71.3984 10.614C71.1418 10.1373 71.0134 9.58733 71.0134 8.964C71.0134 8.34067 71.1381 7.79433 71.3874 7.325C71.6441 6.84833 71.9998 6.48167 72.4544 6.225C72.9164 5.96833 73.4444 5.84 74.0384 5.84C74.6104 5.84 75.1201 5.96467 75.5674 6.214C76.0148 6.46333 76.3631 6.81533 76.6124 7.27C76.8618 7.71733 76.9864 8.23433 76.9864 8.821ZM75.6774 8.425C75.6701 7.963 75.5051 7.59267 75.1824 7.314C74.8598 7.03533 74.4601 6.896 73.9834 6.896C73.5508 6.896 73.1804 7.03533 72.8724 7.314C72.5644 7.58533 72.3811 7.95567 72.3224 8.425H75.6774Z" fill="#064975"/>
<path d="M5.6074 6.66667C6.06848 5.8696 6.93027 5.33333 7.91732 5.33333C9.39008 5.33333 10.584 6.52724 10.584 8C10.584 9.47276 9.39008 10.6667 7.91732 10.6667C6.67476 10.6667 5.63069 9.81682 5.33466 8.66667M5.6074 6.66667V5M5.6074 6.66667L6.91732 7" stroke="#064975" stroke-linecap="round" stroke-linejoin="round"/>
<path d="M2 8C2 11.3137 4.68629 14 8 14C11.3137 14 14 11.3137 14 8C14 4.68629 11.3137 2 8 2C4.68629 2 2 4.68629 2 8Z" stroke="#064975" stroke-linecap="round" stroke-linejoin="round"/>
</svg>
