<svg width="345" height="80" viewBox="0 0 345 80" fill="none" xmlns="http://www.w3.org/2000/svg">
<path d="M124.846 15.8477H132.153C132.451 15.8474 132.742 15.9392 132.987 16.1106C133.231 16.2819 133.417 16.5245 133.519 16.8052L147.562 55.5301C147.642 55.7496 147.668 55.9852 147.637 56.2169C147.607 56.4486 147.521 56.6695 147.387 56.8608C147.253 57.0522 147.074 57.2084 146.867 57.316C146.66 57.4236 146.429 57.4796 146.196 57.4791H140.587C140.288 57.4794 139.997 57.3876 139.753 57.2163C139.508 57.0449 139.322 56.8024 139.221 56.5216L137.412 51.5385C137.311 51.2569 137.126 51.0135 136.882 50.8413C136.637 50.6692 136.345 50.5767 136.046 50.5767H120.952C120.653 50.5773 120.362 50.67 120.117 50.8421C119.873 51.0141 119.687 51.2573 119.586 51.5385L117.782 56.5216C117.68 56.802 117.494 57.0442 117.25 57.2155C117.005 57.3868 116.714 57.4788 116.416 57.4791H110.79C110.556 57.4796 110.326 57.4236 110.119 57.316C109.911 57.2084 109.733 57.0522 109.599 56.8608C109.465 56.6695 109.379 56.4486 109.348 56.2169C109.318 55.9852 109.344 55.7496 109.424 55.5301L123.467 16.8052C123.569 16.5224 123.757 16.2784 124.004 16.1069C124.251 15.9353 124.545 15.8448 124.846 15.8477ZM125.008 42.3807H131.982C132.216 42.3804 132.447 42.3238 132.654 42.2157C132.861 42.1075 133.039 41.951 133.173 41.7594C133.307 41.5677 133.393 41.3466 133.424 41.1148C133.454 40.8829 133.428 40.6471 133.348 40.4274L129.842 30.8611C129.739 30.5815 129.553 30.3402 129.309 30.1697C129.064 29.9992 128.774 29.9078 128.476 29.9078C128.178 29.9078 127.887 29.9992 127.643 30.1697C127.399 30.3402 127.213 30.5815 127.11 30.8611L123.642 40.4274C123.562 40.6471 123.536 40.8829 123.566 41.1148C123.597 41.3466 123.682 41.5677 123.816 41.7594C123.951 41.951 124.129 42.1075 124.336 42.2157C124.543 42.3238 124.774 42.3804 125.008 42.3807Z" fill="#064975"/>
<path d="M181.823 57.4914H174.763C174.531 57.4916 174.303 57.4365 174.098 57.3307C173.892 57.2248 173.714 57.0713 173.58 56.8829L164.031 43.4355C163.902 43.2548 163.733 43.1059 163.538 43.0002C163.343 42.8945 163.126 42.8349 162.905 42.8259C162.683 42.8168 162.462 42.8587 162.259 42.9481C162.056 43.0375 161.876 43.1722 161.733 43.3419C161.513 43.6042 161.392 43.9357 161.392 44.2781V56.0403C161.392 56.4251 161.239 56.7942 160.967 57.0664C160.695 57.3385 160.326 57.4914 159.941 57.4914H154.613C154.228 57.4914 153.859 57.3385 153.587 57.0664C153.315 56.7942 153.162 56.4251 153.162 56.0403V17.3154C153.162 16.9305 153.315 16.5614 153.587 16.2893C153.859 16.0171 154.228 15.8643 154.613 15.8643H159.92C160.305 15.8643 160.674 16.0171 160.946 16.2893C161.218 16.5614 161.371 16.9305 161.371 17.3154V27.0051C161.373 27.3007 161.466 27.5884 161.636 27.8299C161.807 28.0713 162.047 28.255 162.324 28.3564C162.602 28.4577 162.904 28.4718 163.19 28.3969C163.476 28.322 163.732 28.1616 163.924 27.9371L173.597 16.3834C173.733 16.2201 173.904 16.0888 174.096 15.9991C174.289 15.9093 174.499 15.8633 174.712 15.8643H181.623C181.899 15.8648 182.17 15.9441 182.403 16.0927C182.636 16.2414 182.822 16.4534 182.939 16.7038C183.055 16.9542 183.099 17.2328 183.063 17.5069C183.028 17.781 182.915 18.0393 182.738 18.2516L169.014 34.5969C168.803 34.8477 168.683 35.1625 168.674 35.4901C168.664 35.8178 168.766 36.1389 168.963 36.4012L183.006 55.1679C183.167 55.3854 183.265 55.6438 183.288 55.9138C183.311 56.1839 183.258 56.4549 183.135 56.6964C183.012 56.938 182.824 57.1403 182.592 57.2808C182.36 57.4212 182.094 57.4942 181.823 57.4914Z" fill="#064975"/>
<path d="M203.143 15.8472H210.449C210.748 15.8475 211.039 15.9395 211.283 16.1108C211.528 16.2821 211.713 16.5243 211.815 16.8047L225.859 55.5296C225.939 55.7491 225.965 55.9847 225.934 56.2164C225.904 56.4481 225.818 56.669 225.684 56.8603C225.55 57.0517 225.371 57.2078 225.164 57.3155C224.957 57.4231 224.726 57.4791 224.493 57.4786H218.88C218.581 57.4783 218.29 57.3863 218.046 57.215C217.801 57.0437 217.616 56.8015 217.514 56.5211L215.709 51.5379C215.608 51.2568 215.422 51.0136 215.178 50.8416C214.934 50.6695 214.642 50.5768 214.343 50.5762H199.249C198.95 50.5768 198.659 50.6695 198.414 50.8416C198.17 51.0136 197.984 51.2568 197.883 51.5379L196.079 56.5211C195.977 56.8015 195.791 57.0437 195.546 57.215C195.302 57.3863 195.011 57.4783 194.713 57.4786H189.087C188.853 57.4791 188.623 57.4231 188.416 57.3155C188.208 57.2078 188.03 57.0517 187.896 56.8603C187.762 56.669 187.676 56.4481 187.645 56.2164C187.615 55.9847 187.641 55.7491 187.721 55.5296L201.764 16.8047C201.867 16.5223 202.055 16.2786 202.301 16.1072C202.548 15.9357 202.842 15.8449 203.143 15.8472ZM203.304 42.3802H210.279C210.513 42.3799 210.743 42.3233 210.951 42.2152C211.158 42.107 211.336 41.9505 211.47 41.7589C211.604 41.5672 211.69 41.3461 211.721 41.1143C211.751 40.8824 211.725 40.6466 211.645 40.4269L208.139 30.8606C208.036 30.581 207.85 30.3396 207.606 30.1692C207.361 29.9987 207.071 29.9073 206.773 29.9073C206.475 29.9073 206.184 29.9987 205.94 30.1692C205.696 30.3396 205.509 30.581 205.407 30.8606L201.938 40.4269C201.858 40.6466 201.833 40.8824 201.863 41.1143C201.894 41.3461 201.979 41.5672 202.113 41.7589C202.247 41.9505 202.426 42.107 202.633 42.2152C202.84 42.3233 203.071 42.3799 203.304 42.3802Z" fill="#064975"/>
<path d="M231.459 56.0403V17.3154C231.459 16.9305 231.611 16.5614 231.884 16.2893C232.156 16.0171 232.525 15.8643 232.91 15.8643H254.693C255.079 15.8643 255.448 16.017 255.721 16.289C255.994 16.561 256.148 16.9301 256.149 17.3154V22.6219C256.148 23.0072 255.994 23.3763 255.721 23.6483C255.448 23.9203 255.079 24.0731 254.693 24.0731H241.118C240.734 24.0731 240.364 24.226 240.092 24.4981C239.82 24.7702 239.667 25.1393 239.667 25.5242V29.6393C239.667 30.0245 239.82 30.394 240.092 30.6668C240.364 30.9397 240.733 31.0935 241.118 31.0946H251.838C252.223 31.0946 252.593 31.2474 252.866 31.5194C253.138 31.7914 253.292 32.1605 253.293 32.5457V37.8523C253.292 38.2376 253.138 38.6067 252.866 38.8787C252.593 39.1507 252.223 39.3034 251.838 39.3034H241.118C240.733 39.3046 240.364 39.4584 240.092 39.7312C239.82 40.004 239.667 40.3736 239.667 40.7588V56.0786C239.667 56.4634 239.514 56.8325 239.242 57.1047C238.97 57.3768 238.601 57.5297 238.216 57.5297H232.91C232.716 57.5297 232.524 57.491 232.345 57.4157C232.167 57.3404 232.005 57.23 231.87 57.0912C231.734 56.9524 231.628 56.7878 231.558 56.6073C231.487 56.4268 231.453 56.234 231.459 56.0403Z" fill="#064975"/>
<path d="M279.469 58.266C276.733 58.2863 274.025 57.7174 271.529 56.5978C269.062 55.4808 266.838 53.8904 264.984 51.9168C261.083 47.7934 258.909 42.3328 258.909 36.6566C258.909 30.9805 261.083 25.5198 264.984 21.3965C266.84 19.432 269.064 17.8504 271.529 16.741C274.035 15.6326 276.746 15.0601 279.486 15.0601C282.227 15.0601 284.938 15.6326 287.444 16.741C289.908 17.8505 292.13 19.4321 293.985 21.3965C297.875 25.5252 300.042 30.9838 300.042 36.6566C300.042 42.3295 297.875 47.7881 293.985 51.9168C292.131 53.8908 289.907 55.4812 287.44 56.5978C284.933 57.7189 282.215 58.2878 279.469 58.266ZM279.469 50.0571C281.116 50.0657 282.744 49.7035 284.231 48.9975C285.716 48.2969 287.049 47.3124 288.155 46.0996C290.513 43.5281 291.81 40.1586 291.785 36.6694C291.797 34.8931 291.469 33.1309 290.819 31.4777C290.205 29.905 289.301 28.4616 288.155 27.2222C287.045 26.0161 285.713 25.0351 284.231 24.3327C282.741 23.6375 281.116 23.2773 279.472 23.2773C277.827 23.2773 276.202 23.6375 274.712 24.3327C273.227 25.0363 271.893 26.022 270.784 27.235C269.031 29.1873 267.854 31.5876 267.383 34.169C266.913 36.7504 267.168 39.4117 268.12 41.8568C268.736 43.4287 269.639 44.8718 270.784 46.1123C271.894 47.3189 273.228 48.2987 274.712 48.9975C276.198 49.704 277.824 50.0662 279.469 50.0571Z" fill="#064975"/>
<path d="M317.785 48.9381V41.3676C317.785 41.0144 317.645 40.6756 317.395 40.4258C317.145 40.176 316.806 40.0357 316.453 40.0357H308.904C308.552 40.0357 308.214 39.8958 307.965 39.6468C307.716 39.3978 307.576 39.0601 307.576 38.7079V33.6014C307.576 33.2488 307.716 32.9107 307.965 32.661C308.214 32.4114 308.551 32.2705 308.904 32.2694H316.453C316.806 32.2694 317.144 32.1297 317.393 31.8808C317.643 31.6319 317.784 31.2942 317.785 30.9417V23.3712C317.785 23.019 317.925 22.6813 318.174 22.4323C318.423 22.1833 318.761 22.0435 319.113 22.0435H324.241C324.593 22.0435 324.93 22.1833 325.179 22.4323C325.428 22.6813 325.568 23.019 325.568 23.3712V30.9246C325.569 31.2772 325.71 31.6149 325.96 31.8637C326.21 32.1126 326.548 32.2524 326.9 32.2524H334.45C334.802 32.2535 335.14 32.3943 335.389 32.644C335.637 32.8937 335.777 33.2318 335.777 33.5843V38.6909C335.777 39.043 335.637 39.3807 335.388 39.6297C335.139 39.8787 334.802 40.0186 334.45 40.0186H326.9C326.547 40.0186 326.208 40.1589 325.958 40.4087C325.709 40.6585 325.568 40.9973 325.568 41.3506V48.9381C325.568 49.2906 325.429 49.6288 325.18 49.8785C324.931 50.1281 324.593 50.269 324.241 50.2701H319.113C318.76 50.269 318.423 50.1281 318.174 49.8785C317.925 49.6288 317.785 49.2906 317.785 48.9381Z" stroke="#064975" stroke-width="3.20438" stroke-miterlimit="10"/>
<path d="M115.394 17.2988V22.6054C115.394 22.9902 115.241 23.3593 114.969 23.6315C114.697 23.9036 114.328 24.0565 113.943 24.0565H104.581C104.196 24.0565 103.826 24.2092 103.554 24.4812C103.281 24.7533 103.127 25.1224 103.126 25.5076V56.0407C103.126 56.4256 102.973 56.7947 102.701 57.0668C102.429 57.3389 102.06 57.4918 101.675 57.4918H96.3681C95.9832 57.4918 95.6142 57.3389 95.342 57.0668C95.0699 56.7947 94.917 56.4256 94.917 56.0407V25.5076C94.9159 25.1224 94.762 24.7533 94.4892 24.4812C94.2164 24.2092 93.8469 24.0565 93.4616 24.0565H84.0996C83.7147 24.0565 83.3456 23.9036 83.0735 23.6315C82.8013 23.3593 82.6484 22.9902 82.6484 22.6054V17.2988C82.6484 16.9139 82.8013 16.5448 83.0735 16.2727C83.3456 16.0005 83.7147 15.8477 84.0996 15.8477H113.943C114.328 15.8477 114.697 16.0005 114.969 16.2727C115.241 16.5448 115.394 16.9139 115.394 17.2988Z" fill="#064975"/>
<path d="M69.886 31.6606C71.1322 36.3369 71.274 41.2388 70.3002 45.9793C69.3265 50.7197 67.2638 55.1688 64.2751 58.9752C61.2864 62.7815 57.4537 65.8407 53.0795 67.9113C48.7054 69.9818 43.9097 71.0069 39.0713 70.9056C34.2329 70.8043 29.4844 69.5794 25.2008 67.3276C20.9171 65.0758 17.2157 61.8588 14.389 57.9307C11.5623 54.0026 9.6876 49.4711 8.91308 44.694C8.13857 39.917 8.48543 35.0253 9.92626 30.4053" stroke="#064975" stroke-width="9.60888" stroke-miterlimit="10"/>
<path d="M42.1152 8.5835C48.5641 9.08084 54.6994 11.5682 59.674 15.702C64.6486 19.8358 68.2171 25.4122 69.8865 31.661" stroke="#064975" stroke-width="9.60888" stroke-miterlimit="10"/>
<path d="M9.92676 30.4051C11.4244 25.6171 14.0521 21.2597 17.588 17.7008C21.1239 14.142 25.4642 11.4861 30.2424 9.95752" fill="#064975"/>
<path d="M9.92676 30.4051C11.4244 25.6171 14.0521 21.2597 17.588 17.7008C21.1239 14.142 25.4642 11.4861 30.2424 9.95752" stroke="#064975" stroke-width="9.60888" stroke-miterlimit="10"/>
<path d="M30.2422 9.95745C32.8259 9.13044 35.5065 8.64409 38.216 8.51074Z" fill="#064975"/>
<path d="M30.2422 9.95745C32.8259 9.13044 35.5065 8.64409 38.216 8.51074" stroke="#064975" stroke-width="9.60888" stroke-miterlimit="10"/>
<path d="M40.3066 29.5371C43.8226 29.5371 46.6728 26.6869 46.6728 23.1709C46.6728 19.6549 43.8226 16.8047 40.3066 16.8047C36.7907 16.8047 33.9404 19.6549 33.9404 23.1709C33.9404 26.6869 36.7907 29.5371 40.3066 29.5371Z" fill="#064975"/>
<path d="M32.8211 41.1976V69.1178H48.8643V41.4189C48.8643 41.4189 49.2685 40.4912 49.809 41.4189L50.6601 44.6999H54.8007C54.8007 44.6999 55.8816 32.7845 48.877 31.6611H33.6126C33.6126 31.6611 25.74 31.1632 26.4506 44.5722H30.9061L32.1317 41.2401C32.1317 41.2401 32.4679 40.6572 32.8211 41.1976Z" fill="#064975" stroke="#064975" stroke-width="0.123409" stroke-miterlimit="10"/>
</svg>
