<svg width="16" height="16" viewBox="0 0 16 16" fill="none" xmlns="http://www.w3.org/2000/svg">
<path d="M2.23324 1.3335H8.16658C8.65992 1.3335 9.06657 1.74017 9.06657 2.2335V3.22015C9.06657 3.58015 8.83991 4.02683 8.61991 4.2535L6.6866 5.96016C6.41994 6.18683 6.23991 6.63349 6.23991 6.99349V8.92684C6.23991 9.19351 6.05992 9.5535 5.83325 9.6935L5.20658 10.1002C4.61992 10.4602 3.81323 10.0535 3.81323 9.3335V6.95349C3.81323 6.64016 3.63325 6.2335 3.45325 6.00684L1.74658 4.20683C1.51991 3.98016 1.33992 3.58016 1.33992 3.30682V2.2735C1.33326 1.74017 1.7399 1.3335 2.23324 1.3335Z" stroke="#858D98" stroke-miterlimit="10" stroke-linecap="round" stroke-linejoin="round"/>
<path d="M1.33301 7.99984V9.99984C1.33301 13.3332 2.66634 14.6665 5.99967 14.6665H9.99967C13.333 14.6665 14.6663 13.3332 14.6663 9.99984V5.99984C14.6663 3.91984 14.1463 2.61317 12.9397 1.93317C12.5997 1.73983 11.9197 1.59316 11.2997 1.49316" stroke="#858D98" stroke-linecap="round" stroke-linejoin="round"/>
<path d="M8.66699 8.6665H12.0003" stroke="#858D98" stroke-linecap="round" stroke-linejoin="round"/>
<path d="M7.33301 11.3335H11.9997" stroke="#858D98" stroke-linecap="round" stroke-linejoin="round"/>
</svg>
