<svg width="16" height="16" viewBox="0 0 16 16" fill="none" xmlns="http://www.w3.org/2000/svg">
<path fill-rule="evenodd" clip-rule="evenodd" d="M11.0008 2.96185C11.2061 3.14658 11.2227 3.46273 11.038 3.66798L5.87961 9.39954C5.22992 10.1214 4.13 10.2114 3.37163 9.60469L1.02068 7.72394C0.805048 7.55143 0.770087 7.23678 0.942592 7.02115C1.1151 6.80552 1.42974 6.77056 1.64537 6.94307L3.99632 8.82383C4.34104 9.0996 4.841 9.0587 5.13631 8.73057L10.2947 2.99902C10.4794 2.79376 10.7956 2.77712 11.0008 2.96185Z" fill="#064975"/>
<path fill-rule="evenodd" clip-rule="evenodd" d="M15.0008 2.96185C15.2061 3.14658 15.2227 3.46273 15.038 3.66798L9.87961 9.39954C9.22992 10.1214 8.13 10.2114 7.37163 9.60469L5.02068 7.72394C4.80505 7.55143 4.77009 7.23678 4.94259 7.02115C5.1151 6.80552 5.42974 6.77056 5.64537 6.94307L7.99632 8.82383C8.34104 9.0996 8.841 9.0587 9.13631 8.73057L14.2947 2.99902C14.4794 2.79376 14.7956 2.77712 15.0008 2.96185Z" fill="#064975"/>
<path fill-rule="evenodd" clip-rule="evenodd" d="M3.03304 10.9335C3.25395 10.7678 3.56735 10.8126 3.73304 11.0335C3.97004 11.3495 4.9796 12.1669 6.66637 12.1669C8.35314 12.1669 9.3627 11.3495 9.5997 11.0335C9.76539 10.8126 10.0788 10.7678 10.2997 10.9335C10.5206 11.0992 10.5654 11.4126 10.3997 11.6335C9.97004 12.2064 8.6615 13.1669 6.66637 13.1669C4.67124 13.1669 3.3627 12.2064 2.93304 11.6335C2.76735 11.4126 2.81212 11.0992 3.03304 10.9335Z" fill="#064975"/>
</svg>
