<svg width="32" height="32" viewBox="0 0 32 32" fill="none" xmlns="http://www.w3.org/2000/svg">
<path d="M28.7467 14.32L26.9467 12.2133C26.6133 11.8133 26.3333 11.0666 26.3333 10.5333V8.26664C26.3333 6.85331 25.1733 5.69331 23.76 5.69331H21.4933C20.96 5.69331 20.2 5.41331 19.8 5.07997L17.6933 3.27997C16.7733 2.49331 15.2667 2.49331 14.3467 3.27997L12.2133 5.07997C11.8133 5.41331 11.0667 5.69331 10.5333 5.69331H8.22667C6.81334 5.69331 5.65334 6.85331 5.65334 8.26664V10.5333C5.65334 11.0533 5.38667 11.8 5.05334 12.2L3.25334 14.32C2.48001 15.2533 2.48001 16.7466 3.25334 17.6533L5.05334 19.7733C5.38667 20.16 5.65334 20.92 5.65334 21.44V23.72C5.65334 25.1333 6.81334 26.2933 8.22667 26.2933H10.5467C11.0667 26.2933 11.8267 26.5733 12.2267 26.9066L14.3333 28.7066C15.2533 29.4933 16.76 29.4933 17.68 28.7066L19.7867 26.9066C20.1867 26.5733 20.9333 26.2933 21.4667 26.2933H23.7333C25.1467 26.2933 26.3067 25.1333 26.3067 23.72V21.4533C26.3067 20.92 26.5867 20.1733 26.92 19.7733L28.72 17.6666C29.5333 16.76 29.5333 15.2533 28.7467 14.32ZM15 10.84C15 10.2933 15.4533 9.83997 16 9.83997C16.5467 9.83997 17 10.2933 17 10.84V17.28C17 17.8266 16.5467 18.28 16 18.28C15.4533 18.28 15 17.8266 15 17.28V10.84ZM16 22.4933C15.2667 22.4933 14.6667 21.8933 14.6667 21.16C14.6667 20.4266 15.2533 19.8266 16 19.8266C16.7333 19.8266 17.3333 20.4266 17.3333 21.16C17.3333 21.8933 16.7467 22.4933 16 22.4933Z" fill="#024343"/>
</svg>
