<svg width="18" height="18" viewBox="0 0 18 18" fill="none" xmlns="http://www.w3.org/2000/svg">
<path d="M3.19507 8.26508V11.9926C3.19507 13.3576 3.19507 13.3576 4.48507 14.2276L8.03257 16.2751C8.56507 16.5826 9.43507 16.5826 9.96757 16.2751L13.5151 14.2276C14.8051 13.3576 14.8051 13.3576 14.8051 11.9926V8.26508C14.8051 6.90008 14.8051 6.90008 13.5151 6.03008L9.96757 3.98258C9.43507 3.67508 8.56507 3.67508 8.03257 3.98258L4.48507 6.03008C3.19507 6.90008 3.19507 6.90008 3.19507 8.26508Z" stroke="#00B2A9" stroke-width="1.125" stroke-linecap="round" stroke-linejoin="round"/>
<path d="M13.125 5.7225V3.75C13.125 2.25 12.375 1.5 10.875 1.5H7.125C5.625 1.5 4.875 2.25 4.875 3.75V5.67" stroke="#00B2A9" stroke-width="1.125" stroke-linecap="round" stroke-linejoin="round"/>
<path d="M9.47258 8.2432L9.90008 8.9107C9.96758 9.0157 10.1176 9.1207 10.2301 9.1507L10.9951 9.3457C11.4676 9.4657 11.5951 9.8707 11.2876 10.2457L10.7851 10.8532C10.7101 10.9507 10.6501 11.1232 10.6576 11.2432L10.7026 12.0307C10.7326 12.5182 10.3876 12.7657 9.93758 12.5857L9.20258 12.2932C9.09008 12.2482 8.90258 12.2482 8.79008 12.2932L8.05508 12.5857C7.60508 12.7657 7.26008 12.5107 7.29008 12.0307L7.33508 11.2432C7.34258 11.1232 7.28258 10.9432 7.20758 10.8532L6.70508 10.2457C6.39758 9.8707 6.52508 9.4657 6.99758 9.3457L7.76258 9.1507C7.88258 9.1207 8.03258 9.0082 8.09258 8.9107L8.52008 8.2432C8.79008 7.8382 9.21008 7.8382 9.47258 8.2432Z" stroke="#00B2A9" stroke-width="1.125" stroke-linecap="round" stroke-linejoin="round"/>
</svg>
