<svg width="12" height="12" viewBox="0 0 12 12" fill="none" xmlns="http://www.w3.org/2000/svg">
<path d="M6 11.375C3.035 11.375 0.625 8.965 0.625 6C0.625 3.035 3.035 0.625 6 0.625C8.965 0.625 11.375 3.035 11.375 6C11.375 8.965 8.965 11.375 6 11.375ZM6 1.375C3.45 1.375 1.375 3.45 1.375 6C1.375 8.55 3.45 10.625 6 10.625C8.55 10.625 10.625 8.55 10.625 6C10.625 3.45 8.55 1.375 6 1.375Z" fill="#869291"/>
<path d="M5.2907 7.79078C5.1907 7.79078 5.0957 7.75078 5.0257 7.68078L3.6107 6.26578C3.4657 6.12078 3.4657 5.88078 3.6107 5.73578C3.7557 5.59078 3.9957 5.59078 4.1407 5.73578L5.2907 6.88578L7.8607 4.31578C8.0057 4.17078 8.2457 4.17078 8.3907 4.31578C8.5357 4.46078 8.5357 4.70078 8.3907 4.84578L5.5557 7.68078C5.4857 7.75078 5.3907 7.79078 5.2907 7.79078Z" fill="#869291"/>
</svg>
