<svg width="128" height="128" viewBox="0 0 128 128" fill="none" xmlns="http://www.w3.org/2000/svg">
<g filter="url(#filter0_d_43_143)">
<rect x="32" y="26" width="64" height="64" rx="32" fill="#010D0D"/>
<path d="M49.448 64.208C48.552 64.208 47.7653 63.9893 47.088 63.552C46.416 63.1147 45.8933 62.528 45.52 61.792C45.1467 61.0507 44.96 60.2293 44.96 59.328V52.8H46.912V59.328C46.912 59.8613 47.0107 60.352 47.208 60.8C47.4107 61.2427 47.6987 61.5973 48.072 61.864C48.4507 62.1253 48.9093 62.256 49.448 62.256C49.992 62.256 50.4507 62.1253 50.824 61.864C51.1973 61.5973 51.48 61.2427 51.672 60.8C51.8693 60.352 51.968 59.8613 51.968 59.328V52.8H53.92V59.328C53.92 60.0053 53.8133 60.64 53.6 61.232C53.3867 61.8187 53.0827 62.336 52.688 62.784C52.2933 63.232 51.8213 63.5813 51.272 63.832C50.728 64.0827 50.12 64.208 49.448 64.208ZM59.675 64.208C58.939 64.208 58.267 64.0187 57.659 63.64C57.0563 63.2613 56.5737 62.752 56.211 62.112C55.8537 61.472 55.675 60.7653 55.675 59.992C55.675 59.4107 55.779 58.8667 55.987 58.36C56.195 57.848 56.4803 57.4 56.843 57.016C57.211 56.6267 57.6377 56.3227 58.123 56.104C58.6083 55.8853 59.1257 55.776 59.675 55.776C60.299 55.776 60.8697 55.9093 61.387 56.176C61.9097 56.4373 62.3523 56.7973 62.715 57.256C63.0777 57.7147 63.3417 58.2373 63.507 58.824C63.6723 59.4107 63.7097 60.024 63.619 60.664H57.771C57.8457 60.9627 57.9683 61.232 58.139 61.472C58.3097 61.7067 58.5257 61.896 58.787 62.04C59.0483 62.1787 59.3443 62.2507 59.675 62.256C60.0163 62.2613 60.3257 62.1813 60.603 62.016C60.8857 61.8453 61.1203 61.616 61.307 61.328L63.299 61.792C62.9737 62.5013 62.4883 63.0827 61.843 63.536C61.1977 63.984 60.475 64.208 59.675 64.208ZM57.707 59.2H61.643C61.5843 58.88 61.459 58.592 61.267 58.336C61.0803 58.0747 60.8483 57.8667 60.571 57.712C60.2937 57.5573 59.995 57.48 59.675 57.48C59.355 57.48 59.059 57.5573 58.787 57.712C58.515 57.8613 58.283 58.0667 58.091 58.328C57.9043 58.584 57.7763 58.8747 57.707 59.2ZM72.5686 58.944V64H70.6166V59.456C70.6166 59.1413 70.5393 58.856 70.3846 58.6C70.23 58.3387 70.022 58.1333 69.7606 57.984C69.5046 57.8293 69.2193 57.752 68.9046 57.752C68.59 57.752 68.302 57.8293 68.0406 57.984C67.7846 58.1333 67.5793 58.3387 67.4246 58.6C67.2753 58.856 67.2006 59.1413 67.2006 59.456V64H65.2486L65.2406 56H67.1926L67.2006 56.712C67.4726 56.424 67.798 56.1973 68.1766 56.032C68.5553 55.8613 68.9633 55.776 69.4006 55.776C69.982 55.776 70.5126 55.92 70.9926 56.208C71.4726 56.4907 71.854 56.872 72.1366 57.352C72.4246 57.8267 72.5686 58.3573 72.5686 58.944ZM77.8462 64.208C77.1102 64.208 76.4382 64.0187 75.8302 63.64C75.2276 63.2613 74.7449 62.7547 74.3822 62.12C74.0249 61.48 73.8462 60.7733 73.8462 60C73.8462 59.4133 73.9502 58.8667 74.1582 58.36C74.3662 57.848 74.6516 57.4 75.0142 57.016C75.3822 56.6267 75.8089 56.3227 76.2942 56.104C76.7796 55.8853 77.2969 55.776 77.8462 55.776C78.5822 55.776 79.2516 55.9653 79.8542 56.344C80.4622 56.7227 80.9449 57.232 81.3022 57.872C81.6649 58.512 81.8462 59.2213 81.8462 60C81.8462 60.5813 81.7422 61.1253 81.5342 61.632C81.3262 62.1387 81.0382 62.5867 80.6702 62.976C80.3076 63.36 79.8836 63.6613 79.3982 63.88C78.9182 64.0987 78.4009 64.208 77.8462 64.208ZM77.8462 62.256C78.2356 62.256 78.5849 62.152 78.8942 61.944C79.2036 61.736 79.4462 61.4613 79.6222 61.12C79.8036 60.7787 79.8942 60.4053 79.8942 60C79.8942 59.584 79.8009 59.2053 79.6142 58.864C79.4329 58.5173 79.1849 58.2427 78.8702 58.04C78.5609 57.832 78.2196 57.728 77.8462 57.728C77.4622 57.728 77.1156 57.832 76.8062 58.04C76.4969 58.248 76.2516 58.5253 76.0702 58.872C75.8889 59.2187 75.7982 59.5947 75.7982 60C75.7982 60.4213 75.8916 60.8027 76.0782 61.144C76.2649 61.4853 76.5129 61.7573 76.8222 61.96C77.1369 62.1573 77.4782 62.256 77.8462 62.256Z" fill="white"/>
</g>
<defs>
<filter id="filter0_d_43_143" x="0" y="0" width="128" height="128" filterUnits="userSpaceOnUse" color-interpolation-filters="sRGB">
<feFlood flood-opacity="0" result="BackgroundImageFix"/>
<feColorMatrix in="SourceAlpha" type="matrix" values="0 0 0 0 0 0 0 0 0 0 0 0 0 0 0 0 0 0 127 0" result="hardAlpha"/>
<feOffset dy="6"/>
<feGaussianBlur stdDeviation="16"/>
<feComposite in2="hardAlpha" operator="out"/>
<feColorMatrix type="matrix" values="0 0 0 0 0.172549 0 0 0 0 0.196078 0 0 0 0 0.662745 0 0 0 0.04 0"/>
<feBlend mode="normal" in2="BackgroundImageFix" result="effect1_dropShadow_43_143"/>
<feBlend mode="normal" in="SourceGraphic" in2="effect1_dropShadow_43_143" result="shape"/>
</filter>
</defs>
</svg>
