<svg width="128" height="128" viewBox="0 0 128 128" fill="none" xmlns="http://www.w3.org/2000/svg">
<g filter="url(#filter0_d_48_163)">
<rect x="32" y="26" width="64" height="64" rx="32" fill="#FF2A63"/>
<g clip-path="url(#clip0_48_163)">
<rect x="44" y="38" width="40" height="40" rx="20" fill="white"/>
<path fill-rule="evenodd" clip-rule="evenodd" d="M80.3739 38H47.6261C45.6235 38 44 39.6235 44 41.6261V74.3739C44 76.3765 45.6235 78 47.6261 78H80.3739C82.3765 78 84 76.3765 84 74.3739V41.6261C84 39.6235 82.3765 38 80.3739 38ZM57.368 50.5851C58.6977 50.5851 59.8115 49.5429 59.8115 48.177C59.8115 46.812 58.6977 45.77 57.368 45.77C56.0383 45.77 54.9247 46.812 54.9247 48.177C54.9247 49.5429 56.0383 50.5851 57.368 50.5851ZM52.3014 63.4789C52.1579 64.0899 52.0858 64.7495 52.0858 65.2877C52.0858 67.4082 53.2356 68.8159 55.6793 68.8159C57.7059 68.8159 59.3488 67.6123 60.5317 65.6691L59.8094 68.568H63.8336L66.1336 59.3432C66.7085 57.0074 67.8224 55.7952 69.5115 55.7952C70.8411 55.7952 71.6676 56.622 71.6676 57.987C71.6676 58.3826 71.6315 58.8133 71.4879 59.2806L70.3018 63.5208C70.1221 64.1317 70.0506 64.743 70.0506 65.3174C70.0506 67.3305 71.2362 68.8029 73.7156 68.8029C75.8358 68.8029 77.5246 67.438 78.4589 64.1679L76.878 63.5574C76.0873 65.7483 75.4045 66.1444 74.8656 66.1444C74.3265 66.1444 74.0389 65.7853 74.0389 65.067C74.0389 64.7436 74.1111 64.3847 74.2186 63.9526L75.3688 59.8215C75.6561 58.8515 75.7641 57.9914 75.7641 57.201C75.7641 54.1107 73.8953 52.498 71.6315 52.498C69.5115 52.498 67.3553 54.4103 66.2776 56.4229L67.0679 52.8105H60.9233L60.0608 55.9923H62.9356L61.1655 63.0799C59.7751 66.1702 57.2215 66.2203 56.9011 66.1485C56.3748 66.0298 56.0383 65.83 56.0383 65.1462C56.0383 64.7517 56.1102 64.185 56.2899 63.5017L58.9851 52.8105H52.1579L51.2953 55.9923H54.1339L52.3014 63.4789Z" fill="#FF2A63"/>
</g>
</g>
<defs>
<filter id="filter0_d_48_163" x="0" y="0" width="128" height="128" filterUnits="userSpaceOnUse" color-interpolation-filters="sRGB">
<feFlood flood-opacity="0" result="BackgroundImageFix"/>
<feColorMatrix in="SourceAlpha" type="matrix" values="0 0 0 0 0 0 0 0 0 0 0 0 0 0 0 0 0 0 127 0" result="hardAlpha"/>
<feOffset dy="6"/>
<feGaussianBlur stdDeviation="16"/>
<feComposite in2="hardAlpha" operator="out"/>
<feColorMatrix type="matrix" values="0 0 0 0 0.172549 0 0 0 0 0.196078 0 0 0 0 0.662745 0 0 0 0.04 0"/>
<feBlend mode="normal" in2="BackgroundImageFix" result="effect1_dropShadow_48_163"/>
<feBlend mode="normal" in="SourceGraphic" in2="effect1_dropShadow_48_163" result="shape"/>
</filter>
<clipPath id="clip0_48_163">
<rect x="44" y="38" width="40" height="40" rx="20" fill="white"/>
</clipPath>
</defs>
</svg>
