<svg width="32" height="32" viewBox="0 0 32 32" fill="none" xmlns="http://www.w3.org/2000/svg">
<rect x="0.75" y="0.75" width="30.5" height="30.5" rx="15.25" fill="white"/>
<rect x="0.75" y="0.75" width="30.5" height="30.5" rx="15.25" stroke="white" stroke-width="1.5"/>
<path d="M16 24.275C11.8 24.275 8.375 20.8583 8.375 16.65V15.0833C8.375 14.7583 8.64167 14.5 8.95833 14.5C9.275 14.5 9.54167 14.7667 9.54167 15.0833V16.65C9.54167 20.2083 12.4333 23.1 15.9917 23.1C19.55 23.1 22.4417 20.2083 22.4417 16.65V15.0833C22.4417 14.7583 22.7083 14.5 23.025 14.5C23.3417 14.5 23.6083 14.7667 23.6083 15.0833V16.65C23.625 20.8583 20.2 24.275 16 24.275Z" fill="#00B2A9"/>
<path d="M16 7.66666C13.2 7.66666 10.9167 9.94999 10.9167 12.75V16.6583C10.9167 19.4583 13.2 21.7417 16 21.7417C18.8 21.7417 21.0833 19.4583 21.0833 16.6583V12.75C21.0833 9.94999 18.8 7.66666 16 7.66666ZM17.8167 14.825C17.7583 15.05 17.55 15.2 17.325 15.2C17.2833 15.2 17.2333 15.1917 17.1917 15.1833C16.3417 14.95 15.4417 14.95 14.5917 15.1833C14.3167 15.2583 14.0417 15.1 13.9667 14.825C13.8917 14.5583 14.05 14.275 14.325 14.2C15.35 13.9167 16.4333 13.9167 17.4583 14.2C17.7333 14.275 17.8917 14.55 17.8167 14.825ZM18.525 12.5167C18.45 12.725 18.2583 12.85 18.05 12.85C17.9917 12.85 17.9333 12.8417 17.875 12.8167C16.6 12.35 15.2 12.35 13.925 12.8167C13.6583 12.9167 13.3667 12.7833 13.2667 12.5167C13.175 12.2583 13.3083 11.9667 13.575 11.8667C15.075 11.325 16.725 11.325 18.2167 11.8667C18.4833 11.9667 18.6167 12.2583 18.525 12.5167Z" fill="#00B2A9"/>
</svg>
