<svg width="128" height="128" viewBox="0 0 128 128" fill="none" xmlns="http://www.w3.org/2000/svg">
<g filter="url(#filter0_d_48_156)">
<rect x="32" y="26" width="64" height="64" rx="32" fill="#292931"/>
<path d="M61.55 45.9187C62.5347 45.3827 64.13 45.382 65.1167 45.9187L73.55 50.5053C74.5347 51.0413 75.3333 52.3833 75.3333 53.5013V62.5053C75.3333 63.624 74.5367 64.964 73.55 65.5007L65.1167 70.0873C64.132 70.6233 62.5367 70.6247 61.55 70.0873L53.1167 65.5007C52.132 64.9647 51.3333 63.6227 51.3333 62.5053V53.5013C51.3333 52.3827 52.13 51.0427 53.1167 50.5053L61.55 45.9187Z" fill="white"/>
<path d="M74.9987 56.8067C78.1275 56.8067 80.664 54.2383 80.664 51.07C80.664 47.9017 78.1275 45.3333 74.9987 45.3333C71.8698 45.3333 69.3333 47.9017 69.3333 51.07C69.3333 54.2383 71.8698 56.8067 74.9987 56.8067Z" fill="#2F8BE6"/>
<path fill-rule="evenodd" clip-rule="evenodd" d="M61.6553 62C63.9227 62 65.3587 60.6873 65.3587 58.0107V54.972C65.3587 54.4293 64.948 54 64.4293 54C63.9107 54 63.5007 54.4293 63.5007 54.9727V58.086C63.5007 59.4873 62.8127 60.2073 61.6793 60.2073C60.5447 60.2073 59.858 59.4627 59.858 58.0233V54.972C59.858 54.4293 59.4473 54 58.9287 54C58.41 54 58 54.4293 58 54.972V58.0733C58 60.6747 59.3867 62 61.6553 62ZM66.8087 54.972V60.9647C66.8087 61.5073 67.2193 61.9367 67.738 61.9367C68.2567 61.9367 68.6667 61.5073 68.6667 60.9653V54.972C68.6667 54.4293 68.2567 54 67.738 54C67.2193 54 66.8087 54.4293 66.8087 54.972Z" fill="#353535"/>
<path fill-rule="evenodd" clip-rule="evenodd" d="M75 53.3333C74.0433 53.3333 73.3333 52.8147 73.3333 52.024V52.0107C73.3333 51.46 73.574 51.136 74.0307 50.916C73.6973 50.702 73.4813 50.41 73.4813 49.924V49.9107C73.4813 49.218 74.0867 48.6667 75 48.6667C75.9133 48.6667 76.5187 49.2113 76.5187 49.9113V49.9247C76.5187 50.41 76.3027 50.702 75.9693 50.916C76.4073 51.156 76.6667 51.4473 76.6667 51.9853V51.9987C76.6667 52.84 75.9567 53.3333 75 53.3333ZM75 50.5853C75.3767 50.5853 75.6173 50.352 75.6173 50.034V50.0207C75.6173 49.7427 75.3887 49.49 75 49.49C74.6113 49.49 74.3827 49.7367 74.3827 50.0147V50.028C74.3827 50.3453 74.6233 50.5853 75 50.5853ZM75.7467 51.946C75.7467 52.2633 75.4693 52.51 75 52.51C74.5307 52.51 74.2533 52.2573 74.2533 51.9467V51.9333C74.2533 51.5833 74.568 51.376 75 51.376C75.432 51.376 75.7467 51.5833 75.7467 51.9333V51.946Z" fill="white"/>
</g>
<defs>
<filter id="filter0_d_48_156" x="0" y="0" width="128" height="128" filterUnits="userSpaceOnUse" color-interpolation-filters="sRGB">
<feFlood flood-opacity="0" result="BackgroundImageFix"/>
<feColorMatrix in="SourceAlpha" type="matrix" values="0 0 0 0 0 0 0 0 0 0 0 0 0 0 0 0 0 0 127 0" result="hardAlpha"/>
<feOffset dy="6"/>
<feGaussianBlur stdDeviation="16"/>
<feComposite in2="hardAlpha" operator="out"/>
<feColorMatrix type="matrix" values="0 0 0 0 0.172549 0 0 0 0 0.196078 0 0 0 0 0.662745 0 0 0 0.04 0"/>
<feBlend mode="normal" in2="BackgroundImageFix" result="effect1_dropShadow_48_156"/>
<feBlend mode="normal" in="SourceGraphic" in2="effect1_dropShadow_48_156" result="shape"/>
</filter>
</defs>
</svg>
