<svg width="20" height="20" viewBox="0 0 20 20" fill="none" xmlns="http://www.w3.org/2000/svg">
<path d="M3.33398 5C3.33398 3.61929 4.45327 2.5 5.83398 2.5H14.1673C15.548 2.5 16.6673 3.61929 16.6673 5V15C16.6673 16.3807 15.548 17.5 14.1673 17.5H5.83398C4.45327 17.5 3.33398 16.3807 3.33398 15V5Z" stroke="#858D98" stroke-width="1.25"/>
<path d="M9.16732 10V6.66667C9.16732 5.74619 8.42113 5 7.50065 5V5C6.58018 5 5.83398 5.74619 5.83398 6.66667V10" stroke="#858D98" stroke-width="1.25" stroke-linecap="round"/>
<path d="M5.83398 8.33331H9.16732" stroke="#858D98" stroke-width="1.25" stroke-linecap="round" stroke-linejoin="round"/>
<path d="M5.83398 12.5H14.1673" stroke="#858D98" stroke-width="1.25" stroke-linecap="round"/>
<path d="M5.83398 15H14.1673" stroke="#858D98" stroke-width="1.25" stroke-linecap="round"/>
<path d="M11.667 6.25L14.167 6.25" stroke="#858D98" stroke-width="1.25" stroke-linecap="round"/>
<path d="M12.917 5L12.917 7.5" stroke="#858D98" stroke-width="1.25" stroke-linecap="round"/>
</svg>
