<svg width="20" height="20" viewBox="0 0 20 20" fill="none" xmlns="http://www.w3.org/2000/svg">
<path opacity="0.4" d="M12.9833 9.99896C12.9833 11.649 11.6499 12.9823 9.99993 12.9823C8.34993 12.9823 7.0166 11.649 7.0166 9.99896C7.0166 8.34896 8.34993 7.01562 9.99993 7.01562C11.6499 7.01562 12.9833 8.34896 12.9833 9.99896Z" stroke="#00B2A9" stroke-width="1.25" stroke-linecap="round" stroke-linejoin="round"/>
<path d="M9.99999 16.8932C12.9417 16.8932 15.6833 15.1599 17.5917 12.1599C18.3417 10.9849 18.3417 9.0099 17.5917 7.8349C15.6833 4.8349 12.9417 3.10156 9.99999 3.10156C7.05832 3.10156 4.31666 4.8349 2.40833 7.8349C1.65833 9.0099 1.65833 10.9849 2.40833 12.1599C4.31666 15.1599 7.05832 16.8932 9.99999 16.8932Z" stroke="#00B2A9" stroke-width="1.25" stroke-linecap="round" stroke-linejoin="round"/>
</svg>
