<svg width="20" height="20" viewBox="0 0 20 20" fill="none" xmlns="http://www.w3.org/2000/svg">
<path d="M3.33334 5C3.33334 3.61929 4.45263 2.5 5.83334 2.5H14.1667C15.5474 2.5 16.6667 3.61929 16.6667 5V15C16.6667 16.3807 15.5474 17.5 14.1667 17.5H5.83334C4.45263 17.5 3.33334 16.3807 3.33334 15V5Z" stroke="#1C53F4" stroke-width="1.25"/>
<path d="M9.16668 10V6.66667C9.16668 5.74619 8.42048 5 7.50001 5V5C6.57954 5 5.83334 5.74619 5.83334 6.66667V10" stroke="#1C53F4" stroke-width="1.25" stroke-linecap="round"/>
<path d="M5.83334 8.33337H9.16668" stroke="#1C53F4" stroke-width="1.25" stroke-linecap="round" stroke-linejoin="round"/>
<path d="M5.83334 12.5H14.1667" stroke="#1C53F4" stroke-width="1.25" stroke-linecap="round"/>
<path d="M5.83334 15H14.1667" stroke="#1C53F4" stroke-width="1.25" stroke-linecap="round"/>
<path d="M11.6667 6.25L14.1667 6.25" stroke="#1C53F4" stroke-width="1.25" stroke-linecap="round"/>
<path d="M12.9167 5L12.9167 7.5" stroke="#1C53F4" stroke-width="1.25" stroke-linecap="round"/>
</svg>
