<svg width="20" height="20" viewBox="0 0 20 20" fill="none" xmlns="http://www.w3.org/2000/svg">
<path opacity="0.4" d="M15.5583 1.66602H13.975C12.1583 1.66602 11.2 2.62435 11.2 4.44102V6.02435C11.2 7.84102 12.1583 8.79935 13.975 8.79935H15.5583C17.375 8.79935 18.3333 7.84102 18.3333 6.02435V4.44102C18.3333 2.62435 17.375 1.66602 15.5583 1.66602Z" fill="white"/>
<path opacity="0.4" d="M6.03335 11.1914H4.45002C2.62502 11.1914 1.66669 12.1497 1.66669 13.9664V15.5497C1.66669 17.3747 2.62502 18.3331 4.44169 18.3331H6.02502C7.84169 18.3331 8.80002 17.3747 8.80002 15.5581V13.9747C8.80835 12.1497 7.85002 11.1914 6.03335 11.1914Z" fill="white"/>
<path d="M5.24169 8.81602C7.2161 8.81602 8.81669 7.21543 8.81669 5.24102C8.81669 3.2666 7.2161 1.66602 5.24169 1.66602C3.26727 1.66602 1.66669 3.2666 1.66669 5.24102C1.66669 7.21543 3.26727 8.81602 5.24169 8.81602Z" fill="white"/>
<path d="M14.7583 18.3336C16.7328 18.3336 18.3333 16.733 18.3333 14.7586C18.3333 12.7842 16.7328 11.1836 14.7583 11.1836C12.7839 11.1836 11.1833 12.7842 11.1833 14.7586C11.1833 16.733 12.7839 18.3336 14.7583 18.3336Z" fill="white"/>
</svg>
