<svg width="18" height="18" viewBox="0 0 18 18" fill="none" xmlns="http://www.w3.org/2000/svg">
<path opacity="0.4" d="M11.6849 8.99945C11.6849 10.4845 10.4849 11.6845 8.99994 11.6845C7.51494 11.6845 6.31494 10.4845 6.31494 8.99945C6.31494 7.51445 7.51494 6.31445 8.99994 6.31445C10.4849 6.31445 11.6849 7.51445 11.6849 8.99945Z" stroke="#00B2A9" stroke-width="1.125" stroke-linecap="round" stroke-linejoin="round"/>
<path d="M9.00007 15.2035C11.6476 15.2035 14.1151 13.6435 15.8326 10.9435C16.5076 9.88602 16.5076 8.10852 15.8326 7.05102C14.1151 4.35102 11.6476 2.79102 9.00007 2.79102C6.35257 2.79102 3.88507 4.35102 2.16757 7.05102C1.49257 8.10852 1.49257 9.88602 2.16757 10.9435C3.88507 13.6435 6.35257 15.2035 9.00007 15.2035Z" stroke="#00B2A9" stroke-width="1.125" stroke-linecap="round" stroke-linejoin="round"/>
</svg>
