<svg width="14" height="14" viewBox="0 0 14 14" fill="none" xmlns="http://www.w3.org/2000/svg">
<path d="M7 7.0013C8.61083 7.0013 9.91667 5.69547 9.91667 4.08464C9.91667 2.4738 8.61083 1.16797 7 1.16797C5.38917 1.16797 4.08334 2.4738 4.08334 4.08464C4.08334 5.69547 5.38917 7.0013 7 7.0013Z" stroke="#024343" stroke-width="0.875" stroke-linecap="round" stroke-linejoin="round"/>
<path d="M11.2059 9.18388L9.14088 11.2489C9.05922 11.3306 8.98339 11.4822 8.96589 11.593L8.85505 12.3805C8.81422 12.6664 9.01256 12.8647 9.29839 12.8239L10.0859 12.713C10.1967 12.6955 10.3542 12.6197 10.4301 12.538L12.495 10.4731C12.8509 10.1172 13.02 9.70304 12.495 9.17804C11.9759 8.65887 11.5617 8.82804 11.2059 9.18388Z" stroke="#024343" stroke-width="0.875" stroke-miterlimit="10" stroke-linecap="round" stroke-linejoin="round"/>
<path d="M10.9084 9.48047C11.0834 10.1105 11.5734 10.6005 12.2034 10.7755" stroke="#024343" stroke-width="0.875" stroke-miterlimit="10" stroke-linecap="round" stroke-linejoin="round"/>
<path d="M1.98911 12.8333C1.98911 10.5758 4.23496 8.75 6.99996 8.75C7.60663 8.75 8.18995 8.8375 8.73245 9.00083" stroke="#024343" stroke-width="0.875" stroke-linecap="round" stroke-linejoin="round"/>
</svg>
