<svg width="14" height="14" viewBox="0 0 14 14" fill="none" xmlns="http://www.w3.org/2000/svg">
<path d="M7.00001 7.0013C8.61084 7.0013 9.91668 5.69547 9.91668 4.08464C9.91668 2.4738 8.61084 1.16797 7.00001 1.16797C5.38918 1.16797 4.08334 2.4738 4.08334 4.08464C4.08334 5.69547 5.38918 7.0013 7.00001 7.0013Z" stroke="#024343" stroke-width="0.875" stroke-linecap="round" stroke-linejoin="round"/>
<path d="M1.98915 12.8333C1.98915 10.5758 4.235 8.75 7 8.75" stroke="#024343" stroke-width="0.875" stroke-linecap="round" stroke-linejoin="round"/>
<path d="M10.6167 12.4833C11.6476 12.4833 12.4833 11.6476 12.4833 10.6167C12.4833 9.58574 11.6476 8.75 10.6167 8.75C9.58574 8.75 8.75 9.58574 8.75 10.6167C8.75 11.6476 9.58574 12.4833 10.6167 12.4833Z" stroke="#024343" stroke-width="0.875" stroke-linecap="round" stroke-linejoin="round"/>
<path d="M12.8333 12.8333L12.25 12.25" stroke="#024343" stroke-width="0.875" stroke-linecap="round" stroke-linejoin="round"/>
</svg>
