<svg width="14" height="14" viewBox="0 0 14 14" fill="none" xmlns="http://www.w3.org/2000/svg">
<path d="M7.00001 7.0013C8.61084 7.0013 9.91668 5.69547 9.91668 4.08464C9.91668 2.4738 8.61084 1.16797 7.00001 1.16797C5.38918 1.16797 4.08334 2.4738 4.08334 4.08464C4.08334 5.69547 5.38918 7.0013 7.00001 7.0013Z" stroke="#024343" stroke-width="0.875" stroke-linecap="round" stroke-linejoin="round"/>
<path d="M1.9892 12.8333C1.9892 10.5758 4.23503 8.75 7.00003 8.75C7.56003 8.75 8.10253 8.82583 8.61003 8.96583" stroke="#024343" stroke-width="0.875" stroke-linecap="round" stroke-linejoin="round"/>
<path d="M12.8334 10.4974C12.8334 10.9349 12.7109 11.3491 12.495 11.6991C12.3725 11.9091 12.215 12.0957 12.0342 12.2474C11.6259 12.6149 11.0892 12.8307 10.5 12.8307C9.64835 12.8307 8.90751 12.3757 8.50501 11.6991C8.28918 11.3491 8.16669 10.9349 8.16669 10.4974C8.16669 9.7624 8.50502 9.10323 9.04169 8.6774C9.44419 8.35657 9.95169 8.16406 10.5 8.16406C11.7892 8.16406 12.8334 9.20823 12.8334 10.4974Z" stroke="#024343" stroke-width="0.875" stroke-miterlimit="10" stroke-linecap="round" stroke-linejoin="round"/>
<path d="M9.59001 10.4974L10.1675 11.0749L11.41 9.92578" stroke="#024343" stroke-width="0.875" stroke-linecap="round" stroke-linejoin="round"/>
</svg>
